<svg width="52" height="49" viewBox="0 0 52 49" fill="none" xmlns="http://www.w3.org/2000/svg" role="img" aria-label="Molly Francis">
  <path fill-rule="evenodd" clip-rule="evenodd" d="M28.78 41.8523V42.31C28.7399 43.2269 28.9003 44.1415 29.25 44.99C29.5404 45.6144 30.0649 46.0993 30.71 46.34C31.589 46.6339 32.5139 46.766 33.44 46.73V48.02C29.67 47.86 27.22 47.78 26.07 47.78C24.92 47.78 22.6 47.86 19.15 48.02V46.73C19.9716 46.7665 20.7919 46.6338 21.56 46.34C21.8488 46.2093 22.1088 46.0228 22.325 45.791C22.5413 45.5593 22.7095 45.2871 22.82 44.99C23.1135 44.1282 23.2458 43.2197 23.21 42.31V24.53C23.2316 23.2545 23.1412 21.9797 22.94 20.72C22.7912 19.8066 22.3364 18.9708 21.65 18.35C20.7655 17.6716 19.6614 17.3439 18.55 17.43C16.9977 17.4209 15.4897 17.9471 14.28 18.92C12.9492 19.9945 11.9163 21.3924 11.28 22.98C10.555 24.781 10.198 26.7088 10.23 28.65V42.34C10.1907 43.2515 10.33 44.1619 10.64 45.02C10.8702 45.6189 11.3262 46.1037 11.91 46.37C12.6787 46.6616 13.4986 46.7943 14.32 46.76V48.05C10.8667 47.89 8.56002 47.81 7.40002 47.81C6.24002 47.81 3.77333 47.89 0 48.05V46.76C0.932583 46.7949 1.8639 46.6628 2.75 46.37C3.40268 46.1338 3.93498 45.6483 4.23001 45.02C4.57568 44.1705 4.73262 43.2561 4.69 42.34V23.06C4.82102 21.6012 4.46972 20.1398 3.69 18.9C2.99 18.04 1.78 17.61 0.0299988 17.61V16.32C1.31 16.44 2.59001 16.5 3.85001 16.5C6.01766 16.561 8.18125 16.2774 10.26 15.66V22.91C11.0583 20.6516 12.5271 18.6909 14.47 17.29C16.2071 16.1001 18.2645 15.4654 20.37 15.47C21.3255 15.3378 22.2969 15.3965 23.2281 15.6416C23.2386 13.8772 23.3393 12.1144 23.53 10.36C23.6867 8.93347 24.0227 7.53244 24.53 6.19C24.9757 5.04813 25.6113 3.98986 26.41 3.05999C27.2561 2.06321 28.3297 1.28465 29.54 0.790005C30.8617 0.229701 32.2845 -0.0528343 33.72 -0.0400122C35.6433 -0.0992369 37.5297 0.496654 39.07 1.64999C39.6676 2.09185 40.1534 2.66749 40.4885 3.33084C40.8237 3.99418 40.9988 4.7268 41 5.47C41.013 5.9005 40.9381 6.32913 40.7799 6.72973C40.6217 7.13033 40.3836 7.49448 40.08 7.79998C39.7699 8.10587 39.4007 8.34525 38.9949 8.50344C38.5891 8.66164 38.1553 8.73533 37.72 8.72C36.8343 8.74465 35.975 8.41744 35.33 7.80999C34.9984 7.50706 34.7371 7.13528 34.5643 6.7207C34.3916 6.30611 34.3116 5.85876 34.33 5.41C34.2924 4.64842 34.5463 3.90112 35.04 3.32C35.5224 2.7546 36.1875 2.37601 36.92 2.25C36.8321 2.02291 36.6977 1.81669 36.5255 1.6445C36.3533 1.4723 36.1471 1.33793 35.92 1.25C35.2907 0.971561 34.6079 0.835005 33.92 0.850002C33.1036 0.806564 32.2921 0.999494 31.5826 1.40567C30.8731 1.81184 30.2958 2.41403 29.92 3.14001C29.364 4.29357 29.0541 5.55017 29.01 6.82998C28.87 8.45665 28.8 11.1233 28.8 14.83V22.3669C29.5227 20.3652 30.8409 18.6284 32.5818 17.3931C34.4329 16.0797 36.6613 15.4046 38.93 15.47C40.1006 15.3946 41.2742 15.5617 42.3772 15.961C43.4802 16.3602 44.4888 16.9829 45.34 17.79C46.118 18.6874 46.6548 19.7679 46.9 20.93C47.2338 22.5581 47.3847 24.2184 47.35 25.88V42.34C47.3099 43.2569 47.4703 44.1715 47.82 45.02H47.79C48.0845 45.645 48.6122 46.1297 49.26 46.37C50.1461 46.6628 51.0774 46.7949 52.01 46.76V48.05C48.24 47.89 45.78 47.81 44.61 47.81C43.44 47.81 41.17 47.89 37.72 48.05V46.76C38.5382 46.7952 39.355 46.6624 40.12 46.37C40.6994 46.1007 41.1512 45.6165 41.38 45.02C41.6866 44.161 41.8258 43.2513 41.79 42.34V24.53C41.814 23.2541 41.7202 21.9787 41.51 20.72C41.3639 19.8079 40.9127 18.9723 40.23 18.35C39.3354 17.6687 38.221 17.3411 37.1 17.43C35.5604 17.4221 34.0643 17.9408 32.86 18.9C31.5352 19.9556 30.5025 21.3326 29.86 22.9C29.2448 24.3996 28.8872 25.99 28.8 27.604V41.85L28.78 41.8523Z" fill="currentColor"/>
</svg>
